<svg id="Express" xmlns="http://www.w3.org/2000/svg" viewBox="0 0 128 128"><defs><style>.cls-1{fill:#fff;stroke:#fff;stroke-miterlimit:10;}</style></defs><circle cx="64" cy="64" r="62.5"/><g id="original"><path class="cls-1" d="M107.49,85.58c-3.31.84-5.36,0-7.2-2.72-4.12-6.17-8.67-12.07-13-18.07-.57-.78-1.16-1.54-1.89-2.51C80.16,69.26,75,76,70.09,82.91c-1.75,2.49-3.58,3.56-6.83,2.69L82.8,59.38,64.61,35.69c3.13-.61,5.3-.29,7.21,2.51,4.24,6.18,8.9,12.07,13.56,18.3C90.05,50.29,94.69,44.39,99,38.27c1.75-2.48,3.63-3.43,6.77-2.51-2.39,3.16-4.71,6.26-7,9.34-3.17,4.17-6.27,8.37-9.55,12.44-1.17,1.45-1,2.39.06,3.77C95.32,69.29,101.31,77.35,107.49,85.58Z"/><path class="cls-1" d="M16.51,58.94c.52-2.62.87-5.29,1.6-7.86,4.38-15.55,22.21-22,34.47-12.38,7.19,5.65,9,13.62,8.62,22.63H20.7c-.61,16.12,11,25.85,25.79,20.89,5.19-1.74,8.25-5.84,9.78-10.89.77-2.55,2.06-3,4.46-2.22-1.22,6.36-4,11.67-9.82,15-8.68,5-21.14,3.36-27.68-3.55-3.87-4.09-5.52-9.15-6.21-14.62-.11-.87-.34-1.72-.51-2.59Zm4.27-1.08h36.6c-.24-11.65-7.49-19.93-17.39-20C29.07,37.77,21.24,45.85,20.78,57.86Z"/></g></svg>